<?xml version="1.0" encoding="utf-8"?>
<!-- Generator: Adobe Illustrator 17.1.0, SVG Export Plug-In . SVG Version: 6.00 Build 0)  -->
<!DOCTYPE svg PUBLIC "-//W3C//DTD SVG 1.1//EN" "http://www.w3.org/Graphics/SVG/1.1/DTD/svg11.dtd">
<svg version="1.1" id="Layer_1" xmlns="http://www.w3.org/2000/svg" xmlns:xlink="http://www.w3.org/1999/xlink" x="0px" y="0px"
	 viewBox="0 0 130 130" enable-background="new 0 0 130 130" xml:space="preserve">
<path fill="#0E3A51" d="M108.469,28.173c-1.718,0.605-86.605,30.519-88.276,31.107c-1.419,0.5-1.735,1.725-0.05,2.399
	c2.007,0.804,18.979,7.604,18.979,7.604h-0.002l11.253,4.509c0,0,54.187-39.792,54.924-40.332c0.736-0.542,1.589,0.475,1.052,1.056
	c-0.537,0.584-39.356,42.567-39.356,42.567c-0.002,0.001-0.002,0.002-0.002,0.003l-2.264,2.517l2.994,1.612v0.001
	c0,0,23.251,12.515,24.908,13.407c1.451,0.781,3.34,0.132,3.759-1.674c0.494-2.131,14.225-61.307,14.532-62.623
	C111.317,28.612,110.187,27.568,108.469,28.173z M50.27,100.809c0,1.235,0.693,1.578,1.655,0.704
	c1.254-1.137,14.245-12.796,14.245-12.796l-15.9-8.227V100.809z"/>
</svg>
