<?xml version="1.0" encoding="utf-8"?>
<!-- Generator: Adobe Illustrator 17.1.0, SVG Export Plug-In . SVG Version: 6.00 Build 0)  -->
<!DOCTYPE svg PUBLIC "-//W3C//DTD SVG 1.1//EN" "http://www.w3.org/Graphics/SVG/1.1/DTD/svg11.dtd">
<svg version="1.1" id="Layer_1" xmlns="http://www.w3.org/2000/svg" xmlns:xlink="http://www.w3.org/1999/xlink" x="0px" y="0px"
	 viewBox="0 0 130 130" enable-background="new 0 0 130 130" xml:space="preserve">
<path fill="#0E3A51" d="M65,17c-26.512,0-48,21.49-48,48c0,26.511,21.488,48,48,48c26.51,0,48-21.489,48-48
	C113,38.49,91.51,17,65,17z M84.521,56.322c0.02,0.406,0.027,0.814,0.027,1.224c0,12.493-9.51,26.899-26.898,26.899
	c-5.338,0-10.307-1.566-14.49-4.249c0.738,0.089,1.49,0.133,2.254,0.133c4.43,0,8.506-1.511,11.742-4.048
	c-4.137-0.075-7.629-2.809-8.832-6.565c0.578,0.109,1.17,0.17,1.779,0.17c0.861,0,1.697-0.116,2.49-0.332
	c-4.324-0.869-7.584-4.689-7.584-9.271c0-0.04,0-0.079,0.002-0.118c1.273,0.708,2.732,1.133,4.281,1.183
	c-2.537-1.696-4.205-4.589-4.205-7.87c0-1.732,0.465-3.355,1.279-4.752c4.662,5.72,11.629,9.483,19.486,9.878
	c-0.162-0.692-0.244-1.414-0.244-2.155c0-5.221,4.232-9.453,9.453-9.453c2.719,0,5.176,1.148,6.9,2.985
	c2.154-0.424,4.178-1.21,6.004-2.294c-0.707,2.207-2.205,4.061-4.156,5.23c1.912-0.229,3.734-0.736,5.43-1.488
	C87.973,53.324,86.369,54.99,84.521,56.322z"/>
</svg>
