<?xml version="1.0" encoding="utf-8"?>
<!-- Generator: Adobe Illustrator 17.1.0, SVG Export Plug-In . SVG Version: 6.00 Build 0)  -->
<!DOCTYPE svg PUBLIC "-//W3C//DTD SVG 1.1//EN" "http://www.w3.org/Graphics/SVG/1.1/DTD/svg11.dtd">
<svg version="1.1" id="Layer_1" xmlns="http://www.w3.org/2000/svg" xmlns:xlink="http://www.w3.org/1999/xlink" x="0px" y="0px"
	 viewBox="0 0 130 130" enable-background="new 0 0 130 130" xml:space="preserve">
<path fill="#0E3A51" d="M80.897,71.548c-3.59,0-6.502,4.026-6.502,8.996c0,4.971,2.912,8.999,6.502,8.999
	c3.588,0,6.498-4.028,6.498-8.999C87.395,75.574,84.484,71.548,80.897,71.548z M103.527,48.132c0.74-1.826,0.777-12.201-3.17-22.132
	c0,0-9.057,0.993-22.76,10.396c-2.873-0.793-7.736-1.189-12.598-1.189s-9.723,0.396-12.598,1.189C38.699,26.993,29.645,26,29.645,26
	c-3.947,9.931-3.912,20.306-3.172,22.132C21.834,53.169,19,59.218,19,67.483c0,35.932,29.809,36.508,37.334,36.508
	c1.703,0,5.088,0.004,8.666,0.009c3.578-0.005,6.965-0.009,8.666-0.009c7.525,0,37.334-0.576,37.334-36.508
	C111,59.218,108.166,53.169,103.527,48.132z M65.141,99.574h-0.281c-18.859,0-33.545-2.252-33.545-20.58
	c0-4.389,1.549-8.465,5.229-11.847c6.141-5.636,16.527-2.651,28.316-2.651c0.045,0,0.093-0.001,0.141-0.003
	c0.049,0.002,0.096,0.003,0.141,0.003c11.789,0,22.178-2.984,28.316,2.651c3.68,3.382,5.229,7.458,5.229,11.847
	C98.686,97.322,84,99.574,65.141,99.574z M49.104,71.548c-3.588,0-6.498,4.026-6.498,8.996c0,4.971,2.91,8.999,6.498,8.999
	c3.592,0,6.502-4.028,6.502-8.999C55.606,75.574,52.695,71.548,49.104,71.548z"/>
</svg>
