<svg xmlns="http://www.w3.org/2000/svg" viewBox="0 0 240 240" enable-background="new 0 0 240 240"><g><circle fill="#F06565" cx="120" cy="120" r="120"/><g fill="#fff"><path d="M152.5 167.3l27-3.3c-13.5 18.2-35.1 30-59.5 30-26.2 0-49.2-13.6-62.3-34.1l10.2-24 24.1 8.2c6.8 7.9 16.8 12.8 28 12.8 11.1 0 21.1-4.9 27.9-12.7l4.6 23.1zM127.1 83.6c17 3.3 29.9 18.3 29.9 36.3 0 4.3-.8 8.4-2.1 12.2l4.9 25 25.9-3.1c5.3-10.2 8.3-21.7 8.3-34 0-38-28.7-69.3-65.6-73.5l16.3 21.8-17.6 15.3zM85 132c-1.3-3.8-2-7.8-2-12 0-18.1 13-33.1 30.1-36.3l19.1-16.7-15.6-21c-39.3 1.8-70.6 34.2-70.6 74 0 10.5 2.2 20.4 6.1 29.5l10.7-25 22.2 7.5z"/></g></g></svg>