<svg xmlns="http://www.w3.org/2000/svg" viewBox="0 0 240 240" enable-background="new 0 0 240 240"><g><circle fill="#F06565" cx="120" cy="120" r="120"/><g fill="#fff"><path d="M102.6 132l5.8-9.2c-1.8-2.5-3.8-4.8-6.2-6.9-2.4-2.1-4.9-3.8-7.6-5.3l-8.4 6.9c-3.4-1.3-7-2-10.6-2.1l-5.1-9.7c-6.1.6-12.1 2.6-17.4 5.8l1.8 10.8c-1.4 1.1-2.7 2.4-3.9 3.7-1.2 1.4-2.3 2.8-3.2 4.4l-10.9-.4c-2.6 5.7-3.8 11.9-3.6 18l10.2 3.8c.5 3.5 1.7 7 3.4 10.2l-5.8 9.2c1.8 2.5 3.8 4.8 6.2 6.9 2.4 2.1 4.9 3.8 7.6 5.3l8.4-6.9c3.4 1.3 7 2 10.6 2.1l5.1 9.7c6.1-.6 12.1-2.6 17.4-5.8l-1.8-10.8c1.4-1.1 2.7-2.4 3.9-3.7 1.2-1.4 2.3-2.8 3.2-4.4l10.9.4c2.6-5.7 3.8-11.9 3.6-18l-10.2-3.8c-.5-3.5-1.7-7-3.4-10.2zm-17.5 24.1c-5 5.7-13.7 6.3-19.4 1.2-5.7-5-6.3-13.7-1.2-19.4 5-5.7 13.7-6.3 19.4-1.2 5.7 5.1 6.2 13.7 1.2 19.4zM85.6 67.5l1.7-5.8c-1.3-1-2.8-1.9-4.4-2.7-1.6-.7-3.2-1.3-4.9-1.6l-3.4 5c-2-.2-4.1 0-6 .5l-4.2-4.4c-3.2 1.3-6 3.3-8.4 5.9l2.7 5.5c-.6.8-1.1 1.7-1.5 2.6-.4.9-.8 1.9-1 2.8l-5.9 1.5c-.5 3.5-.1 6.9.9 10.2l6.1.4c.9 1.8 2 3.5 3.5 4.9l-1.8 6c1.3 1 2.8 1.9 4.4 2.7 1.6.7 3.2 1.3 4.9 1.6l3.4-5c2 .2 4.1 0 6-.5l4.2 4.4c3.2-1.3 6-3.3 8.4-5.9l-2.7-5.6c.6-.8 1.1-1.7 1.5-2.6.4-.9.8-1.9 1-2.8l5.9-1.5c.5-3.5.1-6.9-.9-10.2l-6.1-.4c-.8-1.8-2-3.5-3.4-5zm-5.5 15.7c-1.8 3.8-6.3 5.5-10.2 3.7-3.8-1.8-5.5-6.3-3.7-10.2 1.8-3.8 6.3-5.5 10.2-3.7 3.8 1.8 5.5 6.4 3.7 10.2zM155 155.2l-.9-6c-1.6-.4-3.4-.6-5.1-.6-1.8 0-3.5.2-5.1.6l-1 6c-1.9.7-3.7 1.7-5.2 3l-5.7-2.2c-2.3 2.5-4.1 5.5-5.2 8.8l4.7 3.9c-.2 1-.3 2-.3 3s.1 2 .2 3l-4.7 3.8c1 3.3 2.8 6.4 5.1 8.9l5.7-2.1c1.5 1.3 3.3 2.3 5.2 3l.9 6c1.6.4 3.4.6 5.1.6 1.8 0 3.5-.2 5.1-.6l1-6c1.9-.7 3.7-1.7 5.2-3l5.7 2.2c2.3-2.5 4.1-5.5 5.2-8.8l-4.7-3.9c.2-1 .3-2 .3-3s-.1-2-.2-3l4.7-3.8c-1-3.3-2.8-6.4-5.1-8.9l-5.7 2.1c-1.5-1.3-3.3-2.3-5.2-3zm1.6 16.5c0 4.2-3.5 7.6-7.7 7.6s-7.6-3.5-7.6-7.7 3.5-7.6 7.7-7.6 7.6 3.5 7.6 7.7zM186.6 74.1l6.1-12.7c-2.6-2.9-5.6-5.5-9-7.9-3.3-2.3-6.9-4.2-10.5-5.7l-9.7 10.2c-4.6-1.2-9.3-1.6-13.9-1.2l-7.9-11.6c-7.7 1.7-15.1 5.1-21.5 10.1l3.9 13.6c-1.6 1.6-3.1 3.4-4.5 5.4-1.4 1.9-2.5 4-3.5 6.1l-14.1 1c-2.5 7.7-3.1 15.8-2 23.6l13.7 3.4c1.2 4.5 3.2 8.7 5.9 12.6l-6.1 12.7c2.6 2.9 5.6 5.5 9 7.9 3.3 2.3 6.9 4.2 10.5 5.7l9.8-10.1c4.6 1.2 9.3 1.6 13.9 1.2l7.9 11.6c7.7-1.7 15.1-5.1 21.5-10.1l-3.9-13.6c1.6-1.6 3.1-3.4 4.5-5.4 1.4-1.9 2.5-4 3.5-6.1l14.1-1c2.5-7.7 3.1-15.8 2-23.6l-13.7-3.4c-1.3-4.6-3.3-8.8-6-12.7zm-18.8 33.5c-5.6 8.1-16.7 10-24.7 4.4s-10-16.7-4.4-24.7 16.7-10 24.7-4.4 10 16.7 4.4 24.7z"/></g></g></svg>