<svg xmlns="http://www.w3.org/2000/svg" viewBox="0 0 240 240" enable-background="new 0 0 240 240"><g><circle fill="#F06565" cx="120" cy="120" r="120"/><g opacity=".51" fill="#fff"><path fill-rule="evenodd" clip-rule="evenodd" d="M141.8 120.9c-6.4 0-13.5-2.9-21.1-5.9-5.9-2.3-11.9-4.8-18-5.9-16.9-3.6-24.7-6.4-26.4-7.6 2.4-11.4 21.9-13.7 40.7-15.9 8.7-1 17.6-2.1 24.8-4.1.7-.2 1.3-.3 1.9-.3 2.2 0 4.5 1.3 9.2 3.8 1.8 1 4 2.2 6.7 3.5 2.7 1.4 4.1 3 4.1 4.7v.3c0 3.1-9.3 24.5-17 26.7-1.5.5-3.1.7-4.9.7z"/><path d="M143.8 82.2c1.9 0 4.2 1.2 8.8 3.7 1.8 1 4 2.2 6.7 3.5 2.3 1.2 3.5 2.5 3.5 3.8v.3c-.1 3-9.1 23.7-16.3 25.8-1.4.4-2.9.6-4.6.6-6.2 0-13.3-2.8-20.7-5.8-5.9-2.4-12-4.8-18.1-6-15.2-3.3-23.1-5.9-25.5-7.1 2.9-10.1 21.6-12.3 39.6-14.5 8.7-1 17.7-2.1 24.9-4.1.7-.1 1.2-.2 1.7-.2m0-2c-.7 0-1.4.1-2.2.3-22.9 6.3-63.2 3.1-66.3 21.3 1.2 1.7 11.7 4.9 27.3 8.3 13.5 2.6 27.5 11.8 39.2 11.8 1.8 0 3.5-.2 5.1-.7 8.5-2.5 17.8-24.4 17.8-27.7v-.3c0-2.3-1.7-4.1-4.6-5.6-9.8-5-13-7.4-16.3-7.4z"/></g><g opacity=".51" fill="#fff"><path fill-rule="evenodd" clip-rule="evenodd" d="M142.1 164.3c-6.2 0-13.1-2.5-20.4-5-6-2.1-12.3-4.4-18.9-5.6-16.5-3.6-24.4-6.3-26.3-7.6 4.6-10.5 22.6-14.2 40-17.7 6.2-1.3 12.6-2.6 18.5-4.2.3-.1.8-.1 1.2-.1 4.1 0 12.9 3.4 23.5 9 2.7 1.4 4.1 3 4.1 4.7v.3c0 2.8-8.2 23.1-16.3 25.5-1.7.5-3.5.7-5.4.7z"/><path d="M136.2 125.1c3.9 0 12.7 3.4 23 8.9 2.3 1.2 3.5 2.5 3.5 3.8v.3c0 1-1.7 6.4-5.1 12.6-3.6 6.7-7.4 11-10.5 11.9-1.6.5-3.3.7-5.1.7-6 0-12.8-2.4-20-5-6.1-2.2-12.3-4.4-19-5.6-14.6-3.2-22.5-5.7-25.2-7 5-9.4 22.2-12.9 38.9-16.3 6.2-1.3 12.7-2.6 18.5-4.2.2 0 .5-.1 1-.1m0-2c-.6 0-1.1.1-1.5.2-22.9 6.3-53.5 7.7-59.3 23.1 1.2 1.7 11.7 4.9 27.3 8.3 14.8 2.7 28.1 10.6 39.4 10.6 2 0 3.9-.2 5.7-.8 8.5-2.5 17-23.1 17-26.4v-.3c0-2.3-1.7-4.1-4.6-5.6-8.2-4.3-18.8-9.1-24-9.1z"/></g><path fill-rule="evenodd" clip-rule="evenodd" fill="#fff" d="M147.7 57.6c-21.1 6.1-54.5 9.5-72.5 9.5v34.3c0 .1 0 .2.1.3 12.3 0 50.2-4 73.1-10.3 4.4-1.2 8.7-2.5 11.7-3.9 2.8-1.3 4.6-2.6 4.6-4v-34.7c.1 3.5-8.4 6.4-17 8.8zM147.7 102.2c-12.6 3.6-29.6 6.3-45.1 7.9-10.4 1.1-20.1 1.6-27.4 1.6v34.3c0 .1 0 .2.1.3 12.3 0 50.2-4 73.1-10.3 4.4-1.2 8.7-2.5 11.7-3.9 2.8-1.3 4.6-2.6 4.6-4v-34.7c.1 3.5-8.4 6.3-17 8.8zM147.7 146.8c-12.6 3.6-29.6 6.3-45.1 7.9-10.4 1.1-20.1 1.6-27.4 1.6v34.7c12.2 0 50.3-4 73.2-10.3 8.5-2.3 16.3-5 16.3-7.9v-34.7c.1 3.3-8.4 6.2-17 8.7z"/></g></svg>