<svg xmlns="http://www.w3.org/2000/svg" viewBox="0 0 240 240" enable-background="new 0 0 240 240"><g><circle fill="#F06565" cx="120" cy="120" r="120"/><g fill-rule="evenodd" clip-rule="evenodd"><path fill="#FDE7E7" d="M187.1 92.9c.4.5.7.8.9 1.2-5.2 7.8-14 12.9-24 12.9-10.1 0-18.9-5.2-24.1-13-1.7 2.2-2.9 4.8-3.7 7.8-4.1 16.2 9.1 48.3 14.8 57.8 2.5 4.1 7 12.6 14.6 11.1 10.1-2 14.8-15.8 18.3-24.7 7.3-18.6 13.5-40.9 3.2-53.1z"/><path fill="#FAD8D8" d="M188 94.1c-4.6-6.4-13.3-10.4-27.9-10.1l-6.9 1.2c-5.5 1.7-10.2 4.5-13.4 8.8 5.2 7.8 14 13 24.1 13 10.1 0 19-5.1 24.1-12.9z"/><circle fill="#FDE7E7" cx="164" cy="71.1" r="23.9"/></g><g fill-rule="evenodd" clip-rule="evenodd"><path fill="#FDE7E7" d="M99.1 92.9c.4.5.7.8.9 1.2-5.2 7.8-14 12.9-24 12.9-10.1 0-18.9-5.2-24.1-13-1.7 2.2-2.9 4.8-3.7 7.8-4.1 16.2 9.1 48.3 14.8 57.8 2.5 4.1 7 12.6 14.6 11.1 10.1-2 14.8-15.8 18.3-24.7 7.3-18.6 13.5-40.9 3.2-53.1z"/><path fill="#FAD8D8" d="M100 94.1c-4.6-6.4-13.2-10.4-27.8-10.1l-6.9 1.2c-5.5 1.7-10.2 4.5-13.4 8.8 5.2 7.8 14 13 24.1 13 10 0 18.9-5.1 24-12.9z"/><circle fill="#FDE7E7" cx="76" cy="71.1" r="23.9"/></g><g fill-rule="evenodd" clip-rule="evenodd"><path fill="#fff" d="M152.8 97.1l.1.1 1.2 1.5c-7.3 11-19.9 18.3-34.2 18.3-14.3 0-26.9-7.3-34.2-18.4-2.4 3.1-4.2 6.8-5.2 11-5.8 23.1 12.9 68.7 21 82.1 3.5 5.8 10 17.9 20.7 15.8 14.4-2.9 21-22.4 26-35.1 10.4-26.2 19.2-58 4.6-75.3z"/><path fill="#FDE7E7" d="M154.2 98.8c-6.6-9.1-18.8-14.8-39.6-14.3l-9.8 1.8c-7.8 2.4-14.5 6.5-19 12.5 7.3 11.1 19.9 18.4 34.2 18.4 14.3-.1 26.8-7.3 34.2-18.4z"/><circle fill="#fff" cx="120" cy="66.1" r="34"/></g></g></svg>