<svg xmlns="http://www.w3.org/2000/svg" viewBox="0 0 240 240" enable-background="new 0 0 240 240"><g><circle fill="#F06565" cx="120" cy="120" r="120"/><path fill="#fff" d="M67.1 96c7.2-5.6 13.2-1.7 21.1 7.5.9 1 2.1-.2 2.8-.8.7-.6 11.2-10.1 11.7-10.5.5-.5 1.1-1.3.3-2.2-.8-.9-3.8-4.8-5.7-7.3-13.9-18.2 38.1-30.6 30.1-30.8-4.1-.1-20.4-.3-22.8 0-9.9 1-22.4 10.2-28.6 14.5-8.2 5.6-11.2 8.9-11.7 9.3-2.3 2-.4 6.7-4.6 10.4-4.4 3.9-7.2 1-9.8 3.2-1.3 1.1-4.8 3.8-5.9 4.7-1 .9-1.2 2.4-.2 3.6 0 0 9.7 10.8 10.6 11.7.8 1 3 1.8 4.4.6 1.4-1.2 4.9-4.3 5.5-4.8.6-.5-.4-6.7 2.8-9.1zm44 4c-.9-1.1-2.1-1.1-3.1-.2l-11 9.6c-.9.8-1 2.2-.2 3.1l64 72.8c1.5 1.7 4.1 1.9 5.8.4l7.5-6.3c1.7-1.5 1.9-4.1.4-5.8l-63.4-73.6zm85.3-31c-.6-3.8-2.5-3-3.6-1.4-1 1.6-5.6 8.5-7.4 11.6-1.9 3.1-6.4 9.2-14.9 3.2-8.9-6.3-5.8-10.6-4.2-13.6 1.5-3 6.3-11.2 7-12.3.7-1-.1-4.1-2.9-2.8-2.8 1.3-19.5 7.9-21.8 17.4-2.4 9.7 2 18.3-6.6 26.9l-10.4 10.8 10.4 12.1 12.8-12.1c3-3.1 9.5-6 15.4-4.7 12.6 2.9 19.5-1.9 23.6-9.7 3.7-6.9 3.1-21.6 2.6-25.4zm-132.4 105.4c-1.6 1.6-1.6 4.2 0 5.9l7.3 7.2c1.6 1.6 4.2.9 5.8-.7l37.8-37.2-11.6-13.2-39.3 38z"/></g></svg>