<?xml version="1.0" encoding="utf-8"?>
<!-- Generator: Adobe Illustrator 17.1.0, SVG Export Plug-In . SVG Version: 6.00 Build 0)  -->
<!DOCTYPE svg PUBLIC "-//W3C//DTD SVG 1.1//EN" "http://www.w3.org/Graphics/SVG/1.1/DTD/svg11.dtd">
<svg version="1.1" id="Layer_1" xmlns="http://www.w3.org/2000/svg" xmlns:xlink="http://www.w3.org/1999/xlink" x="0px" y="0px"
	 viewBox="0 0 803 529" enable-background="new 0 0 803 529" xml:space="preserve">
<path fill-rule="evenodd" clip-rule="evenodd" fill="#15A9CE" d="M792.4,333.3L419.9,520.6c-10.5,5.3-27.7,5.3-38.2,0L9.2,333.3
	c-10.5-5.3-10.5-13.9,0-19.2l372.5-187.3c10.6-5.3,27.7-5.3,38.2,0l372.5,187.3C802.9,319.4,802.9,328,792.4,333.3z"/>
<path fill-rule="evenodd" clip-rule="evenodd" fill="#41B8D7" d="M792.4,328.3L419.9,515.6c-10.5,5.3-27.7,5.3-38.2,0L9.2,328.3
	c-10.5-5.3-10.5-13.9,0-19.2l372.5-187.3c10.6-5.3,27.7-5.3,38.2,0l372.5,187.3C802.9,314.4,802.9,323,792.4,328.3z"/>
<path fill-rule="evenodd" clip-rule="evenodd" fill="#778998" d="M381.8,426.5c0,18.8-25.2,23-34.8,18.2L7.9,274.2
	c-9.6-4.8-9.6-12.7,0-17.5L347,86.2c9.6-4.8,34.8,0.4,34.8,18.2V426.5z"/>
<path fill-rule="evenodd" clip-rule="evenodd" fill="#889CA9" d="M381.8,421.5c0,18.8-25.2,23-34.8,18.2L7.9,269.2
	c-9.6-4.8-9.6-12.7,0-17.5L347,81.2c9.6-4.8,34.8,0.4,34.8,18.2V421.5z"/>
<path fill-rule="evenodd" clip-rule="evenodd" fill="#778998" d="M419.4,104.5c0-18.8,25.2-23,34.8-18.2l339.1,170.5
	c9.6,4.8,9.6,12.7,0,17.5L454.2,444.8c-9.6,4.8-34.8-0.4-34.8-18.2V104.5z"/>
<path fill-rule="evenodd" clip-rule="evenodd" fill="#C1D2DC" d="M419.4,99.5c0-18.8,25.2-23,34.8-18.2l339.1,170.5
	c9.6,4.8,9.6,12.7,0,17.5L454.2,439.8c-9.6,4.8-34.8-0.4-34.8-18.2V99.5z"/>
<g>
	<path fill-rule="evenodd" clip-rule="evenodd" fill="#C5E8F3" d="M450.5,260.3c-27.7,13.9-72.5,13.9-100.2,0
		c-27.7-13.9-27.7-36.4,0-50.4c27.7-13.9,72.5-13.9,100.2,0C478.1,223.8,478.1,246.4,450.5,260.3z"/>
	<path fill-rule="evenodd" clip-rule="evenodd" fill="#FFFFFF" d="M450.5,255.3c-27.7,13.9-72.5,13.9-100.2,0
		c-27.7-13.9-27.7-36.4,0-50.4c27.7-13.9,72.5-13.9,100.2,0C478.1,218.8,478.1,241.4,450.5,255.3z"/>
	<path fill-rule="evenodd" clip-rule="evenodd" fill="#C5E8F3" d="M374.6,243.1c-14.2-7.2-14.2-18.8,0-25.9
		c14.2-7.2,37.3-7.2,51.5,0c14.2,7.2,14.2,18.8,0,25.9C411.9,250.2,388.8,250.2,374.6,243.1z M440.2,210.1
		c-22-11.1-57.7-11.1-79.7,0c-22,11.1-22,29,0,40.1c22,11.1,57.7,11.1,79.7,0C462.2,239.1,462.3,221.1,440.2,210.1z"/>
</g>
<g>
	<path fill-rule="evenodd" clip-rule="evenodd" fill="#C5E8F3" d="M329.6,197c-27.7,13.9-72.5,13.9-100.2,0
		c-27.7-13.9-27.7-36.4,0-50.4c27.7-13.9,72.5-13.9,100.2,0C357.2,160.6,357.2,183.1,329.6,197z"/>
	<path fill-rule="evenodd" clip-rule="evenodd" fill="#FFFFFF" d="M329.6,192c-27.7,13.9-72.5,13.9-100.2,0
		c-27.7-13.9-27.7-36.4,0-50.4c27.7-13.9,72.5-13.9,100.2,0C357.2,155.6,357.2,178.1,329.6,192z"/>
	<path fill-rule="evenodd" clip-rule="evenodd" fill="#C5E8F3" d="M253.7,179.8c-14.2-7.2-14.2-18.8,0-25.9
		c14.2-7.2,37.3-7.2,51.5,0c14.2,7.2,14.2,18.8,0,25.9C291,186.9,267.9,186.9,253.7,179.8z M319.3,146.8c-22-11.1-57.7-11.1-79.7,0
		c-22,11.1-22,29,0,40.1c22,11.1,57.7,11.1,79.7,0C341.3,175.8,341.3,157.9,319.3,146.8z"/>
</g>
<g>
	<path fill-rule="evenodd" clip-rule="evenodd" fill="#C5E8F3" d="M571.6,197c-27.7,13.9-72.5,13.9-100.2,0
		c-27.7-13.9-27.7-36.4,0-50.4c27.7-13.9,72.5-13.9,100.2,0C599.2,160.6,599.2,183.1,571.6,197z"/>
	<path fill-rule="evenodd" clip-rule="evenodd" fill="#FFFFFF" d="M571.6,192c-27.7,13.9-72.5,13.9-100.2,0
		c-27.7-13.9-27.7-36.4,0-50.4c27.7-13.9,72.5-13.9,100.2,0C599.2,155.6,599.2,178.1,571.6,192z"/>
	<path fill-rule="evenodd" clip-rule="evenodd" fill="#C5E8F3" d="M495.7,179.8c-14.2-7.2-14.2-18.8,0-25.9
		c14.2-7.2,37.3-7.2,51.5,0c14.2,7.2,14.2,18.8,0,25.9C533,186.9,510,186.9,495.7,179.8z M561.4,146.8c-22-11.1-57.7-11.1-79.7,0
		c-22,11.1-22,29,0,40.1c22,11.1,57.7,11.1,79.7,0C583.4,175.8,583.4,157.9,561.4,146.8z"/>
</g>
<g>
	<path fill-rule="evenodd" clip-rule="evenodd" fill="#C5E8F3" d="M571.6,318.6c-27.7,13.9-72.5,13.9-100.2,0
		c-27.7-13.9-27.7-36.4,0-50.4c27.7-13.9,72.5-13.9,100.2,0C599.2,282.1,599.2,304.7,571.6,318.6z"/>
	<path fill-rule="evenodd" clip-rule="evenodd" fill="#FFFFFF" d="M571.6,313.6c-27.7,13.9-72.5,13.9-100.2,0
		c-27.7-13.9-27.7-36.4,0-50.4c27.7-13.9,72.5-13.9,100.2,0C599.2,277.1,599.2,299.7,571.6,313.6z"/>
	<path fill-rule="evenodd" clip-rule="evenodd" fill="#C5E8F3" d="M495.7,301.4c-14.2-7.2-14.2-18.8,0-25.9
		c14.2-7.2,37.3-7.2,51.5,0c14.2,7.2,14.2,18.8,0,25.9C533,308.5,510,308.5,495.7,301.4z M561.4,268.4c-22-11.1-57.7-11.1-79.7,0
		c-22,11.1-22,29,0,40.1c22,11.1,57.7,11.1,79.7,0C583.4,297.4,583.4,279.4,561.4,268.4z"/>
</g>
<g>
	<path fill-rule="evenodd" clip-rule="evenodd" fill="#C5E8F3" d="M692.6,257.8c-27.7,13.9-72.5,13.9-100.2,0
		c-27.7-13.9-27.7-36.4,0-50.4c27.7-13.9,72.5-13.9,100.2,0C720.2,221.3,720.2,243.9,692.6,257.8z"/>
	<path fill-rule="evenodd" clip-rule="evenodd" fill="#FFFFFF" d="M692.6,252.8c-27.7,13.9-72.5,13.9-100.2,0
		c-27.7-13.9-27.7-36.4,0-50.4c27.7-13.9,72.5-13.9,100.2,0C720.2,216.3,720.2,238.9,692.6,252.8z"/>
	<path fill-rule="evenodd" clip-rule="evenodd" fill="#C5E8F3" d="M616.7,240.6c-14.2-7.2-14.2-18.8,0-25.9
		c14.2-7.2,37.3-7.2,51.5,0c14.2,7.2,14.2,18.8,0,25.9C654,247.7,631,247.7,616.7,240.6z M682.4,207.6c-22-11.1-57.7-11.1-79.7,0
		c-22,11.1-22,29,0,40.1c22,11.1,57.7,11.1,79.7,0C704.4,236.6,704.4,218.6,682.4,207.6z"/>
</g>
<g>
	<path fill-rule="evenodd" clip-rule="evenodd" fill="#C5E8F3" d="M329.6,318.6c-27.7,13.9-72.5,13.9-100.2,0
		c-27.7-13.9-27.7-36.4,0-50.4c27.7-13.9,72.5-13.9,100.2,0C357.2,282.1,357.2,304.7,329.6,318.6z"/>
	<path fill-rule="evenodd" clip-rule="evenodd" fill="#FFFFFF" d="M329.6,313.6c-27.7,13.9-72.5,13.9-100.2,0
		c-27.7-13.9-27.7-36.4,0-50.4c27.7-13.9,72.5-13.9,100.2,0C357.2,277.1,357.2,299.7,329.6,313.6z"/>
	<path fill-rule="evenodd" clip-rule="evenodd" fill="#C5E8F3" d="M253.7,301.4c-14.2-7.2-14.2-18.8,0-25.9
		c14.2-7.2,37.3-7.2,51.5,0c14.2,7.2,14.2,18.8,0,25.9C291,308.5,267.9,308.5,253.7,301.4z M319.3,268.4c-22-11.1-57.7-11.1-79.7,0
		c-22,11.1-22,29,0,40.1c22,11.1,57.7,11.1,79.7,0C341.3,297.4,341.3,279.4,319.3,268.4z"/>
</g>
<g>
	<path fill-rule="evenodd" clip-rule="evenodd" fill="#C5E8F3" d="M207.7,257.8c-27.7,13.9-72.5,13.9-100.2,0
		c-27.7-13.9-27.7-36.4,0-50.4c27.7-13.9,72.5-13.9,100.2,0C235.3,221.3,235.3,243.9,207.7,257.8z"/>
	<path fill-rule="evenodd" clip-rule="evenodd" fill="#FFFFFF" d="M207.7,252.8c-27.7,13.9-72.5,13.9-100.2,0
		c-27.7-13.9-27.7-36.4,0-50.4c27.7-13.9,72.5-13.9,100.2,0C235.3,216.3,235.3,238.9,207.7,252.8z"/>
	<path fill-rule="evenodd" clip-rule="evenodd" fill="#C5E8F3" d="M131.8,240.6c-14.2-7.2-14.2-18.8,0-25.9
		c14.2-7.2,37.3-7.2,51.5,0c14.2,7.2,14.2,18.8,0,25.9C169.2,247.7,146.1,247.7,131.8,240.6z M197.5,207.6
		c-22-11.1-57.7-11.1-79.7,0c-22,11.1-22,29,0,40.1c22,11.1,57.7,11.1,79.7,0C219.5,236.6,219.5,218.6,197.5,207.6z"/>
</g>
<g>
	<path fill-rule="evenodd" clip-rule="evenodd" fill="#C5E8F3" d="M450.5,136.6c-27.7,13.9-72.5,13.9-100.2,0
		c-27.7-13.9-27.7-36.4,0-50.4c27.7-13.9,72.5-13.9,100.2,0C478.1,100.1,478.1,122.7,450.5,136.6z"/>
	<path fill-rule="evenodd" clip-rule="evenodd" fill="#FFFFFF" d="M450.5,131.6c-27.7,13.9-72.5,13.9-100.2,0
		c-27.7-13.9-27.7-36.4,0-50.4c27.7-13.9,72.5-13.9,100.2,0C478.1,95.1,478.1,117.7,450.5,131.6z"/>
	<path fill-rule="evenodd" clip-rule="evenodd" fill="#C5E8F3" d="M374.6,119.3c-14.2-7.2-14.2-18.8,0-25.9
		c14.2-7.2,37.3-7.2,51.5,0c14.2,7.2,14.2,18.8,0,25.9C411.9,126.5,388.8,126.5,374.6,119.3z M440.2,86.3c-22-11.1-57.7-11.1-79.7,0
		c-22,11.1-22,29,0,40.1c22,11.1,57.7,11.1,79.7,0C462.2,115.4,462.3,97.4,440.2,86.3z"/>
</g>
<g>
	<path fill-rule="evenodd" clip-rule="evenodd" fill="#C5E8F3" d="M450.5,379.4c-27.7,13.9-72.5,13.9-100.2,0
		c-27.7-13.9-27.7-36.4,0-50.4c27.7-13.9,72.5-13.9,100.2,0C478.1,342.9,478.1,365.5,450.5,379.4z"/>
	<path fill-rule="evenodd" clip-rule="evenodd" fill="#FFFFFF" d="M450.5,374.4c-27.7,13.9-72.5,13.9-100.2,0
		c-27.7-13.9-27.7-36.4,0-50.4c27.7-13.9,72.5-13.9,100.2,0C478.1,337.9,478.1,360.5,450.5,374.4z"/>
	<path fill-rule="evenodd" clip-rule="evenodd" fill="#C5E8F3" d="M374.6,362.1c-14.2-7.2-14.2-18.8,0-25.9
		c14.2-7.2,37.3-7.2,51.5,0c14.2,7.2,14.2,18.8,0,25.9C411.9,369.3,388.8,369.3,374.6,362.1z M440.2,329.1
		c-22-11.1-57.7-11.1-79.7,0c-22,11.1-22,29,0,40.1c22,11.1,57.7,11.1,79.7,0C462.2,358.2,462.3,340.2,440.2,329.1z"/>
</g>
<path id="front_panel" fill-rule="evenodd" clip-rule="evenodd" fill="#D64546" d="M790.7,195.1L418.2,8.7c-9.8-4.9-25.7-4.9-35.5,0
	L10.3,195.1c-9.8,4.9-9.8,12.9,0,17.8l372.4,186.4c9.8,4.9,25.7,4.9,35.5,0l372.4-186.4C800.4,208,800.4,200,790.7,195.1z
	 M701.4,237.8L418.5,379.2c-8.8,4.4-23.2,4.4-32,0L50.6,211.2c-8.8-4.4-8.8-11.6,0-16L333.5,53.8c8.8-4.4,23.2-4.4,32,0l335.9,167.9
	C710.2,226.2,710.2,233.3,701.4,237.8z"/>
<path id="front_panel_1_" fill-rule="evenodd" clip-rule="evenodd" fill="#F06565" d="M790.7,190.1L418.2,3.7
	c-9.8-4.9-25.7-4.9-35.5,0L10.3,190.1c-9.8,4.9-9.8,12.9,0,17.8l372.4,186.4c9.8,4.9,25.7,4.9,35.5,0l372.4-186.4
	C800.4,203,800.4,195,790.7,190.1z M701.4,232.8L418.5,374.2c-8.8,4.4-23.2,4.4-32,0L50.6,206.2c-8.8-4.4-8.8-11.6,0-16L333.5,48.8
	c8.8-4.4,23.2-4.4,32,0l335.9,167.9C710.2,221.2,710.2,228.3,701.4,232.8z"/>
<path fill-rule="evenodd" clip-rule="evenodd" fill="#D64546" d="M744.5,212.6l10.6-5.3c3.8-1.9,3.8-5,0-6.9L479.3,62.4
	c-3.8-1.9-10.1-1.9-13.9,0l-10.6,5.3c-3.8,1.9-3.8,5,0,6.9l275.8,137.9C734.5,214.5,740.7,214.5,744.5,212.6z"/>
<path fill-rule="evenodd" clip-rule="evenodd" fill="#D64546" d="M406.7,50.6l-5.8-2.9c-3.8-1.9-3.8-5,0-6.9l10.6-5.3
	c3.8-1.9,10.1-1.9,13.9,0l5.8,2.9c3.8,1.9,3.8,5,0,6.9l-10.6,5.3C416.7,52.5,410.5,52.5,406.7,50.6z"/>
<path fill-rule="evenodd" clip-rule="evenodd" fill="#D64546" d="M446.5,63.6l10.6-5.3c3.8-1.9,3.8-5,0-6.9l-5.8-2.9
	c-3.8-1.9-10.1-1.9-13.9,0l-10.6,5.3c-3.8,1.9-3.8,5,0,6.9l5.8,2.9C436.5,65.5,442.7,65.5,446.5,63.6z"/>
<path fill-rule="evenodd" clip-rule="evenodd" fill="#D64546" d="M394.5,37.6l10.6-5.3c3.8-1.9,3.8-5,0-6.9l-5.8-2.9
	c-3.8-1.9-10.1-1.9-13.9,0l-10.6,5.3c-3.8,1.9-3.8,5,0,6.9l5.8,2.9C384.5,39.5,390.7,39.5,394.5,37.6z"/>
</svg>
