<svg xmlns="http://www.w3.org/2000/svg" viewBox="0 0 240 240" enable-background="new 0 0 240 240"><g><circle fill="#F06565" cx="120" cy="120" r="120"/><g enable-background="new"><path fill="#FAD8D8" d="M172 57.4l-51.8 30-52.1-30 51.8-30.1z"/><path fill="#FDE7E7" d="M172 57.4l-.1 77.8-51.8 30.1.1-77.9z"/><path fill="#fff" d="M120.2 87.4l-.1 77.9-52.1-30.1.1-77.8z"/></g><g enable-background="new"><path fill="#FAD8D8" d="M114.2 121.4l-36.3 21-36.5-21 36.3-21.1z"/><path fill="#FDE7E7" d="M114.2 121.4l-.1 54.5-36.3 21 .1-54.5z"/><path fill="#fff" d="M77.9 142.4l-.1 54.5-36.4-21v-54.5z"/></g><g enable-background="new"><path fill="#FAD8D8" d="M198.6 121.4l-36.2 21-36.5-21 36.3-21.1z"/><path fill="#FDE7E7" d="M198.6 121.4v54.5l-36.3 21 .1-54.5z"/><path fill="#fff" d="M162.4 142.4l-.1 54.5-36.5-21 .1-54.5z"/></g><g enable-background="new"><path fill="#FAD8D8" d="M145.5 159.8l-25.4 14.8-25.5-14.8 25.3-14.7z"/><path fill="#FDE7E7" d="M145.5 159.8l-.1 38.2-25.3 14.7v-38.1z"/><path fill="#fff" d="M120.1 174.6v38.1l-25.6-14.7.1-38.2z"/></g></g></svg>