<svg xmlns="http://www.w3.org/2000/svg" width="271" height="67.333" viewBox="0 0 271 67.333"><path fill-rule="evenodd" clip-rule="evenodd" fill="#fff" d="M45.5 1.833h16c2.209 0 4 1.791 4 4v8c0 2.209-1.791 4-4 4h-16c-2.209 0-4-1.791-4-4v-8c0-2.209 1.791-4 4-4zM25.5 13.833h16c2.209 0 4 1.791 4 4v8c0 2.209-1.791 4-4 4h-16c-2.209 0-4-1.791-4-4v-8c0-2.209 1.791-4 4-4zM5.5 25.833h16c2.209 0 4 1.791 4 4v8c0 2.209-1.791 4-4 4h-16c-2.209 0-4-1.791-4-4v-8c0-2.209 1.791-4 4-4zM45.5 25.833h16c2.209 0 4 1.791 4 4v8c0 2.209-1.791 4-4 4h-16c-2.209 0-4-1.791-4-4v-8c0-2.209 1.791-4 4-4zM25.5 37.833h16c2.209 0 4 1.791 4 4v8c0 2.209-1.791 4-4 4h-16c-2.209 0-4-1.791-4-4v-8c0-2.209 1.791-4 4-4zM5.5 49.833h16c2.209 0 4 1.791 4 4v8c0 2.209-1.791 4-4 4h-16c-2.209 0-4-1.791-4-4v-8c0-2.209 1.791-4 4-4z"/><path fill="#fff" d="M79.628 12.151v5.607h9.518v26.061h6.66v-26.061h9.475v-5.607h-25.653zM106.773 53.207c.659.043 1.154.068 1.484.075.33.007.767.011 1.312.011 2.71 0 4.517-.533 5.42-1.601.904-1.066 2.131-3.82 3.683-8.261l8.028-23.031h-6.51l-4.834 17.273-5.113-17.273h-6.811l8.605 24.449c.043.172-.09.645-.398 1.418-.308.773-.641 1.281-.999 1.525-.372.258-.831.422-1.375.494-.544.072-1.117.094-1.719.064l-.773-.043v4.9zM147.002 32.11c0 2.191-.452 3.946-1.357 5.264-.905 1.317-2.219 1.977-3.94 1.977-1.186 0-2.215-.322-3.082-.967-1.461-1.103-2.191-3.015-2.191-5.736 0-1.719.217-3.137.652-4.254.839-2.105 2.38-3.158 4.622-3.158 1.867 0 3.217.695 4.048 2.084.832 1.388 1.248 2.985 1.248 4.79zm-3.542-12.225c-1.89 0-3.519.523-4.887 1.568-.75.587-1.456 1.39-2.12 2.406v-3.459h-5.864v32.635h6.059v-12.203c.647.988 1.312 1.74 1.988 2.256 1.24.931 2.797 1.396 4.671 1.396 2.941 0 5.346-1.081 7.212-3.244 1.867-2.163 2.8-5.307 2.8-9.432 0-3.91-.954-6.875-2.865-8.895-1.91-2.018-4.241-3.028-6.994-3.028zM167.832 24.827c1.445 0 2.655.421 3.632 1.263.976.841 1.52 2.075 1.631 3.7h-10.549c.223-1.524.766-2.733 1.631-3.625.865-.892 2.084-1.338 3.655-1.338zm-.002-5.049c-3.433 0-6.224 1.083-8.374 3.247-2.151 2.165-3.227 5.275-3.227 9.332 0 4.329 1.191 7.455 3.573 9.375 2.383 1.921 5.133 2.882 8.249 2.882 3.775 0 6.713-1.139 8.81-3.416 1.349-1.433 2.106-2.843 2.27-4.232h-6.251c-.365.688-.785 1.225-1.261 1.611-.872.717-2.005 1.074-3.399 1.074-1.315 0-2.44-.294-3.376-.881-1.538-.945-2.355-2.593-2.449-4.941h17.057c.029-2.022-.037-3.572-.202-4.647-.285-1.837-.906-3.45-1.866-4.841-1.064-1.578-2.413-2.733-4.046-3.464-1.635-.733-3.47-1.099-5.508-1.099zM181.527 36.342c0 2.406.879 4.387 2.637 5.94 1.759 1.554 4.481 2.331 8.17 2.331 3.616 0 6.289-.733 8.018-2.202 1.73-1.468 2.595-3.362 2.595-5.683 0-1.762-.603-3.229-1.805-4.404-1.218-1.16-3.047-2.026-5.485-2.6-3.659-.802-5.79-1.368-6.393-1.697-.604-.315-.905-.823-.905-1.525 0-.559.283-1.045.851-1.461.567-.415 1.518-.623 2.854-.623 1.623 0 2.771.416 3.447 1.246.358.458.582 1.082.668 1.869h6.122c-.272-2.864-1.331-4.88-3.175-6.048-1.845-1.167-4.232-1.751-7.159-1.751-3.086 0-5.479.777-7.181 2.331-1.701 1.554-2.552 3.413-2.552 5.575 0 1.833.545 3.237 1.634 4.211 1.088.988 2.963 1.812 5.624 2.471 3.696.874 5.831 1.489 6.405 1.848.574.358.861.881.861 1.568 0 .717-.357 1.254-1.069 1.611-.712.358-1.672.537-2.881.537-2.059 0-3.469-.408-4.232-1.225-.432-.458-.713-1.231-.843-2.32h-6.206zM220.918 34.709c-.044 2.048-.629 3.459-1.756 4.232-1.127.773-2.36 1.16-3.697 1.16-.845 0-1.561-.232-2.149-.698-.589-.465-.884-1.221-.884-2.267 0-1.174.482-2.041 1.446-2.6.57-.329 1.508-.608 2.815-.838l1.393-.258c.697-.129 1.245-.269 1.646-.419.398-.15.795-.347 1.187-.591v2.279zm-5.844-4.877c-2.381.301-4.185.802-5.41 1.504-2.237 1.289-3.355 3.373-3.355 6.252 0 2.221.695 3.936 2.085 5.146 1.391 1.21 3.151 1.815 5.284 1.815 1.671 0 3.17-.38 4.495-1.139 1.108-.645 2.089-1.425 2.938-2.342.043.53.1 1.003.172 1.418.072.415.201.859.387 1.332h6.66v-.902c-.4-.185-.702-.423-.902-.709-.2-.286-.322-.83-.365-1.633-.029-1.06-.043-1.962-.043-2.707v-10.742c0-2.821-1-4.741-2.999-5.758-1.999-1.017-4.286-1.525-6.861-1.525-3.956 0-6.747 1.031-8.372 3.094-1.021 1.318-1.598 3.001-1.727 5.049h5.908c.145-.902.436-1.618.871-2.149.609-.716 1.648-1.074 3.114-1.074 1.307 0 2.298.183 2.973.548.676.365 1.013 1.028 1.013 1.987 0 .788-.441 1.368-1.32 1.74-.491.215-1.306.394-2.445.537l-2.101.258zM241.446 11.828c-3.395 0-5.536.702-6.424 2.106-.846.945-1.268 2.671-1.268 5.178v1.504h-3.352v4.318h3.438v18.885h6.08v-18.885h4.018v-4.318h-4.018v-1.976c0-.458.153-.877.462-1.257.308-.379.866-.559 1.676-.537.809.021 1.386.054 1.73.097v-4.984l-1.289-.097c-.315-.023-.666-.034-1.053-.034zM257.656 24.827c1.445 0 2.656.421 3.632 1.263.977.841 1.521 2.075 1.631 3.7h-10.549c.223-1.524.766-2.733 1.632-3.625.865-.892 2.083-1.338 3.654-1.338zm-.002-5.049c-3.432 0-6.224 1.083-8.374 3.247-2.151 2.165-3.226 5.275-3.226 9.332 0 4.329 1.19 7.455 3.572 9.375 2.383 1.921 5.133 2.882 8.249 2.882 3.776 0 6.713-1.139 8.81-3.416 1.349-1.433 2.104-2.843 2.27-4.232h-6.251c-.364.688-.785 1.225-1.261 1.611-.871.717-2.005 1.074-3.399 1.074-1.315 0-2.44-.294-3.376-.881-1.538-.945-2.354-2.593-2.449-4.941h17.056c.031-2.022-.036-3.572-.201-4.647-.284-1.837-.906-3.45-1.865-4.841-1.065-1.578-2.414-2.733-4.048-3.464-1.633-.733-3.469-1.099-5.507-1.099z"/></svg>