<?xml version="1.0" encoding="utf-8"?>
<!-- Generator: Adobe Illustrator 17.1.0, SVG Export Plug-In . SVG Version: 6.00 Build 0)  -->
<!DOCTYPE svg PUBLIC "-//W3C//DTD SVG 1.1//EN" "http://www.w3.org/Graphics/SVG/1.1/DTD/svg11.dtd">
<svg version="1.1" id="Layer_1" xmlns="http://www.w3.org/2000/svg" xmlns:xlink="http://www.w3.org/1999/xlink" x="0px" y="0px"
	 viewBox="0 0 130 130" enable-background="new 0 0 130 130" xml:space="preserve">
<g>
	<path fill="#ffffff" d="M97.807,32.191c-7.215-7.216-12.629-6.133-12.629-6.133l-25.26,25.259L31.049,80.185L26,104l23.813-5.051
		l28.869-28.869l25.26-25.257C103.942,44.824,105.026,39.409,97.807,32.191z M48.395,96.086l-8.117,1.748
		c-0.785-1.467-1.727-2.932-3.455-4.659c-1.727-1.727-3.193-2.669-4.658-3.455l1.75-8.116l2.346-2.348c0,0,4.418,0.088,9.404,5.078
		c4.988,4.987,5.078,9.407,5.078,9.407L48.395,96.086z"/>
</g>
</svg>
