<?xml version="1.0" encoding="utf-8"?>
<!-- Generator: Adobe Illustrator 17.1.0, SVG Export Plug-In . SVG Version: 6.00 Build 0)  -->
<!DOCTYPE svg PUBLIC "-//W3C//DTD SVG 1.1//EN" "http://www.w3.org/Graphics/SVG/1.1/DTD/svg11.dtd">
<svg version="1.1" id="Layer_1" xmlns="http://www.w3.org/2000/svg" xmlns:xlink="http://www.w3.org/1999/xlink" x="0px" y="0px"
	 viewBox="0 0 130 130" enable-background="new 0 0 130 130" xml:space="preserve">
<g>
	<path fill="#ffffff" d="M91.602,87.24c-12.326-4.493-16.266-8.282-16.266-16.395c0-4.871,3.764-3.28,5.416-12.2
		c0.686-3.7,4.01-0.06,4.646-8.507c0-3.367-1.814-4.203-1.814-4.203s0.922-4.982,1.283-8.816C85.314,32.342,82.107,20,65,20
		S44.684,32.342,45.133,37.119c0.361,3.834,1.283,8.816,1.283,8.816s-1.814,0.836-1.814,4.203c0.635,8.447,3.959,4.807,4.644,8.507
		c1.654,8.919,5.416,7.329,5.416,12.2c0,8.113-3.938,11.902-16.264,16.395C26.033,91.746,18,96.339,18,99.473
		C18,102.604,18,110,18,110h47h47c0,0,0-7.396,0-10.527C112,96.339,103.967,91.746,91.602,87.24z"/>
</g>
</svg>
