<?xml version="1.0" encoding="utf-8"?>
<!-- Generator: Adobe Illustrator 17.1.0, SVG Export Plug-In . SVG Version: 6.00 Build 0)  -->
<!DOCTYPE svg PUBLIC "-//W3C//DTD SVG 1.1//EN" "http://www.w3.org/Graphics/SVG/1.1/DTD/svg11.dtd">
<svg version="1.1" id="Layer_1" xmlns="http://www.w3.org/2000/svg" xmlns:xlink="http://www.w3.org/1999/xlink" x="0px" y="0px"
	 viewBox="0 0 130 130" enable-background="new 0 0 130 130" xml:space="preserve">
<g>
	<path fill="#ffffff" d="M102.724,92.336L83.83,73.442c2.85-4.681,4.49-10.177,4.49-16.058c0-17.083-14.803-31.885-31.889-31.885
		C39.349,25.5,25.5,39.35,25.5,56.434s14.803,31.885,31.885,31.885c5.68,0,11-1.538,15.574-4.21l18.996,18.997
		c1.859,1.859,4.873,1.859,6.731,0l4.713-4.71C105.257,96.535,104.584,94.195,102.724,92.336z M35.019,56.434
		c0-11.828,9.588-21.416,21.412-21.416c11.83,0,22.369,10.539,22.369,22.367c0,11.828-9.588,21.416-21.416,21.416
		C45.558,78.801,35.019,68.262,35.019,56.434z"/>
</g>
</svg>
