<?xml version="1.0" encoding="utf-8"?>
<!-- Generator: Adobe Illustrator 17.1.0, SVG Export Plug-In . SVG Version: 6.00 Build 0)  -->
<!DOCTYPE svg PUBLIC "-//W3C//DTD SVG 1.1//EN" "http://www.w3.org/Graphics/SVG/1.1/DTD/svg11.dtd">
<svg version="1.1" id="Layer_1" xmlns="http://www.w3.org/2000/svg" xmlns:xlink="http://www.w3.org/1999/xlink" x="0px" y="0px"
	 viewBox="0 0 130 130" enable-background="new 0 0 130 130" xml:space="preserve">
<path fill="#ffffff" d="M44.975,53.972c0,3.734,1.247,6.43,3.706,8.014c2.013,1.297,4.351,1.491,5.564,1.491
	c0.295,0,0.531-0.011,0.696-0.022c0,0-0.386,2.508,1.475,4.991l-0.084-0.001c-3.223,0-13.734,0.673-13.734,9.314
	c0,8.792,9.654,9.239,11.591,9.239c0.151,0,0.24-0.003,0.24-0.003C54.45,86.995,54.589,87,54.824,87
	c1.243,0,4.456-0.156,7.439-1.606c3.87-1.879,5.834-5.146,5.834-9.712c0-4.413-2.991-7.039-5.175-8.958
	c-1.333-1.169-2.484-2.179-2.484-3.161c0-1,0.841-1.752,1.904-2.705c1.723-1.541,3.346-3.733,3.346-7.877
	c0-3.644-0.473-6.089-3.383-7.641c0.304-0.155,1.376-0.269,1.907-0.342c1.577-0.215,3.885-0.46,3.885-1.748V43H56.601
	C56.485,43.003,44.975,43.43,44.975,53.972z M63.533,76.503c0.22,3.517-2.788,6.111-7.304,6.439
	c-4.587,0.335-8.363-1.73-8.583-5.242c-0.106-1.687,0.636-3.342,2.088-4.658c1.474-1.334,3.496-2.157,5.696-2.319
	c0.26-0.017,0.518-0.027,0.774-0.027C60.45,70.697,63.325,73.192,63.533,76.503z M60.531,51.565
	c1.128,3.967-0.575,8.115-3.289,8.879c-0.312,0.087-0.635,0.132-0.961,0.132c-2.486,0-4.95-2.516-5.862-5.98
	c-0.51-1.947-0.469-3.648,0.116-5.284c0.575-1.609,1.607-2.696,2.907-3.062c0.312-0.088,0.637-0.133,0.962-0.133
	C57.406,46.118,59.336,47.362,60.531,51.565z M79.902,60.205v-7.5h-4.75v7.5h-7.5v4.75h7.5v7.5h4.75v-7.5h7.5v-4.75H79.902z"/>
</svg>
