<?xml version="1.0" encoding="utf-8"?>
<!-- Generator: Adobe Illustrator 17.1.0, SVG Export Plug-In . SVG Version: 6.00 Build 0)  -->
<!DOCTYPE svg PUBLIC "-//W3C//DTD SVG 1.1//EN" "http://www.w3.org/Graphics/SVG/1.1/DTD/svg11.dtd">
<svg version="1.1" id="Layer_1" xmlns="http://www.w3.org/2000/svg" xmlns:xlink="http://www.w3.org/1999/xlink" x="0px" y="0px"
	 viewBox="0 0 130 130" enable-background="new 0 0 130 130" xml:space="preserve">
<path fill="#f16665" d="M89,51.733c-1.693,0.751-3.512,1.258-5.421,1.486c1.949-1.168,3.445-3.018,4.15-5.221
	c-1.824,1.081-3.844,1.867-5.993,2.29c-1.722-1.834-4.175-2.98-6.889-2.98c-5.212,0-9.438,4.225-9.438,9.437
	c0,0.74,0.083,1.46,0.244,2.15c-7.843-0.393-14.799-4.15-19.452-9.86c-0.812,1.394-1.278,3.015-1.278,4.745
	c0,3.274,1.666,6.162,4.198,7.855c-1.546-0.049-3.002-0.473-4.274-1.18c-0.001,0.039-0.001,0.078-0.001,0.118
	c0,4.573,3.254,8.387,7.57,9.254c-0.791,0.216-1.625,0.332-2.486,0.332c-0.607,0-1.198-0.059-1.775-0.169
	c1.201,3.749,4.688,6.478,8.816,6.554c-3.23,2.532-7.299,4.041-11.721,4.041c-0.762,0-1.513-0.045-2.251-0.133
	c4.176,2.679,9.136,4.242,14.467,4.242c17.358,0,26.852-14.381,26.852-26.853c0-0.408-0.009-0.815-0.027-1.221
	C86.135,55.288,87.734,53.626,89,51.733z"/>
</svg>
